<svg width="115" height="134" viewBox="0 0 115 134" fill="none" xmlns="http://www.w3.org/2000/svg">
<path d="M6.7 134H108.157C111.836 134 114.857 131.039 114.857 127.39V64.0089C114.857 60.3598 111.866 57.4286 108.157 57.4286H101.696V48.1862C101.696 35.7732 96.8509 21.9844 88.9545 13.6692C81.0879 5.35402 69.8116 0 57.4585 0C57.4286 0 57.4286 0 57.4286 0H57.3987C45.0455 0 33.7692 5.35402 25.9027 13.6393C18.0063 21.9545 13.1607 35.7433 13.1607 48.1562V57.4286H7.47768H6.7C2.99107 57.4286 0 60.3897 0 64.0089V127.39C0 131.039 2.99107 134 6.7 134ZM29.0134 48.1862C29.0134 40.0205 31.9746 29.9107 37.4183 24.1679V24.0781C42.6826 18.5147 49.9509 15.2545 57.3987 15.2545H57.4286H57.4585C64.9062 15.2545 72.1745 18.5147 77.4388 24.0781V24.1379L77.4089 24.1679C82.8826 29.9107 85.8138 40.0205 85.8138 48.1862V57.4286H80.5795H34.2178H29.0134V48.1862Z" fill="#F8F8F8"/>
</svg>
