<svg width="156" height="35" viewBox="0 0 156 35" fill="none" xmlns="http://www.w3.org/2000/svg">
<path fill-rule="evenodd" clip-rule="evenodd" d="M17.79 1H137.7C146.935 1 154.49 8.42494 154.49 17.5C154.49 26.5751 146.934 34 137.7 34H17.79C8.55626 34 1 26.5751 1 17.5C1 8.42494 8.55531 1 17.79 1Z" stroke="#F2F2F2" stroke-width="1.80024" stroke-miterlimit="22.9256" stroke-linecap="round" stroke-linejoin="round"/>
<path fill-rule="evenodd" clip-rule="evenodd" d="M17.79 1H137.7C146.935 1 154.49 8.42494 154.49 17.5C154.49 26.5751 146.934 34 137.7 34H17.79C8.55626 34 1 26.5751 1 17.5C1 8.42494 8.55531 1 17.79 1Z" fill="#F2F2F2"/>
<path fill-rule="evenodd" clip-rule="evenodd" d="M88.6692 18.9194C88.7148 18.47 88.7385 18.0141 88.7385 17.5529C88.7385 10.0365 82.5359 3.94092 74.8873 3.94092C67.2388 3.94092 61.0361 10.0365 61.0361 17.5529C61.0361 19.187 61.3296 20.7543 61.8673 22.206C73.9891 8.16669 75.7215 30.4196 88.6692 18.9194Z" fill="#132241"/>
<path fill-rule="evenodd" clip-rule="evenodd" d="M82.8614 28.6824C84.4823 27.5588 85.8463 26.1019 86.8513 24.4135C77.415 31.6575 71.8705 15.5123 62.9697 24.4895C63.3571 25.1305 63.7964 25.7379 64.2821 26.3057C72.482 19.0989 75.5547 30.0067 82.8614 28.6824Z" fill="#132241"/>
<path fill-rule="evenodd" clip-rule="evenodd" d="M74.8871 31.1657C75.3951 31.1657 75.8964 31.1382 76.3903 31.0857C73.1962 29.4078 70.1453 27.2646 66.6621 28.5055C68.9622 30.1771 71.8072 31.1657 74.8871 31.1657Z" fill="#132241"/>
<path d="M100.503 6.789H99.5582L99.429 5.95867C99.3042 5.83611 99.1469 5.73979 98.9568 5.66826C98.7667 5.59672 98.5425 5.56173 98.2841 5.56173C97.7331 5.56173 97.3085 5.75874 97.0116 6.15131C96.7146 6.54533 96.566 7.05755 96.566 7.69086V7.90828C96.566 8.5416 96.7131 9.05672 97.0101 9.4522C97.3055 9.84914 97.7228 10.0462 98.2618 10.0462C98.5113 10.0462 98.74 10.0111 98.9479 9.93964C99.1543 9.8681 99.3147 9.77178 99.429 9.64922L99.5582 8.81889H100.503V10.0505C100.247 10.3408 99.9219 10.5729 99.5255 10.7451C99.1305 10.9173 98.688 11.0034 98.1965 11.0049C97.3471 11.0034 96.6507 10.7145 96.1087 10.1365C95.5667 9.55727 95.2949 8.81598 95.2949 7.90828V7.69961C95.2949 6.79629 95.5652 6.05353 96.1042 5.4727C96.6447 4.89051 97.3412 4.6001 98.1965 4.6001C98.688 4.6001 99.129 4.68767 99.5241 4.86271C99.919 5.03785 100.244 5.26985 100.503 5.55735V6.789ZM106.537 4.68913V6.34832H105.563L105.511 5.65222H104.344V10.0373L105.023 10.1658V10.9144H102.396V10.1658L103.074 10.0373V5.65222H101.913L101.861 6.34832H100.89V4.68913H106.537ZM112.737 5.44208L112.119 5.52383L110.313 9.73387C110.128 10.1425 109.91 10.4562 109.66 10.6751C109.411 10.894 109.054 11.0034 108.591 11.0049C108.518 11.0034 108.437 11.002 108.345 10.9976C108.252 10.9932 108.184 10.9888 108.138 10.983L108.129 10.03C108.162 10.0344 108.217 10.0388 108.294 10.0418C108.373 10.0447 108.432 10.0462 108.474 10.0462C108.702 10.0462 108.873 9.99649 108.989 9.89725C109.103 9.79656 109.2 9.6463 109.277 9.44346L109.373 9.20844L107.554 5.53112L106.88 5.44208V4.68913H109.209V5.44208L108.891 5.50185L109.809 7.45584L109.908 7.78427H109.935L110.809 5.51508L110.431 5.44208V4.68913H112.737V5.44208ZM118.957 12.4452H117.805V10.9144H113.92V12.4452H112.75L112.654 9.95713H113.141C113.368 9.76595 113.564 9.46387 113.733 9.05235C113.901 8.64083 113.999 8.03521 114.029 7.23696L114.146 5.56173L113.528 5.44208V4.68913H119V5.44208L118.326 5.57047V9.95713H119.075L118.957 12.4452ZM115.303 7.23696C115.278 7.86735 115.2 8.403 115.074 8.84368C114.948 9.2829 114.785 9.65505 114.581 9.95713H117.057V5.65222H115.408L115.303 7.23696ZM122.246 4.68913V5.44208L121.568 5.57047V8.45111L121.593 8.45985L124.147 5.91628V5.57047L123.473 5.44208V4.68913H124.147H125.421H126.097V5.44208L125.421 5.57047V10.0373L126.097 10.1658V10.9144H123.473V10.1658L124.147 10.0373V7.22529L124.12 7.21655L121.568 9.76449V10.0373L122.246 10.1658V10.9144H119.622V10.1658L120.301 10.0373V5.57047L119.622 5.44208V4.68913H120.301H121.568H122.246ZM132.108 4.68913V5.44208L131.434 5.57047V10.0373L132.108 10.1658V10.9144H130.164V8.57513H129.328L128.737 9.92641C128.58 10.2548 128.387 10.5072 128.156 10.6853C127.925 10.8634 127.655 10.9523 127.344 10.9523C127.197 10.9523 127.059 10.9348 126.933 10.8969C126.807 10.8603 126.694 10.8093 126.591 10.7436L126.758 9.80239C126.816 9.8228 126.864 9.83603 126.908 9.84332C126.949 9.85061 127 9.85352 127.058 9.85352C127.182 9.85352 127.295 9.81988 127.399 9.74991C127.502 9.67983 127.61 9.54853 127.723 9.3588L128.219 8.32854C127.781 8.16506 127.453 7.94473 127.236 7.66452C127.017 7.38587 126.909 7.0312 126.909 6.60073C126.909 5.98783 127.116 5.51653 127.527 5.18519C127.94 4.85542 128.508 4.68913 129.237 4.68913H131.434H132.108ZM128.176 6.65186C128.176 6.97143 128.265 7.21946 128.444 7.39752C128.626 7.57558 128.889 7.66452 129.237 7.66452H130.164V5.65222H129.237C128.886 5.65222 128.621 5.73833 128.443 5.91046C128.265 6.08269 128.176 6.32927 128.176 6.65186ZM129.485 10.9144V10.1658L130.164 10.0373V10.9144H129.485Z" fill="#132241"/>
<path d="M97.993 14.6128V15.3658L97.3143 15.4941V18.3748L97.3396 18.3835L99.8937 15.84V15.4941L99.2196 15.3658V14.6128H99.8937H101.168H101.843V15.3658L101.168 15.4941V19.961L101.843 20.0895V20.8381H99.2196V20.0895L99.8937 19.961V17.149L99.867 17.1402L97.3143 19.6882V19.961L97.993 20.0895V20.8381H95.3691V20.0895L96.0477 19.961V15.4941L95.3691 15.3658V14.6128H96.0477H97.3143H97.993ZM102.295 15.3658V14.6128H104.919V15.3658L104.24 15.4941V17.2891H106.824V15.4941L106.145 15.3658V14.6128H106.824H108.089H108.768V15.3658L108.089 15.4941V19.961L108.768 20.0895V20.8381H106.145V20.0895L106.824 19.961V18.2522H104.24V19.961L104.919 20.0895V20.8381H102.295V20.0895L102.969 19.961V15.4941L102.295 15.3658ZM114.837 14.6128V16.272H113.862L113.81 15.5759H112.643V19.961L113.322 20.0895V20.8381H110.695V20.0895L111.374 19.961V15.5759H110.212L110.16 16.272H109.189V14.6128H114.837ZM119.339 18.1019H117.195V19.8808H119.239L119.296 19.1365H120.261V20.8381H115.249V20.0895L115.924 19.961V15.4941L115.249 15.3658V14.6128H115.924H120.252V16.3186H119.278L119.221 15.5759H117.195V17.1402H119.339V18.1019ZM123.954 14.6128C124.68 14.6128 125.252 14.7966 125.67 15.1629C126.089 15.5291 126.299 16.0078 126.299 16.6018C126.299 17.1972 126.089 17.6758 125.67 18.0377C125.252 18.3996 124.68 18.5805 123.954 18.5805H122.885V19.961L123.563 20.0895V20.8381H120.939V20.0895L121.614 19.961V15.4941L120.939 15.3658V14.6128H121.614H123.954ZM122.885 17.6189H123.954C124.309 17.6189 124.576 17.524 124.757 17.3343C124.938 17.1446 125.029 16.9038 125.029 16.6105C125.029 16.3099 124.938 16.0633 124.757 15.8678C124.576 15.6722 124.309 15.5759 123.954 15.5759H122.885V17.6189ZM126.704 15.3658V14.6128H129.328V15.3658L128.649 15.4941V17.2891H131.233V15.4941L130.554 15.3658V14.6128H131.233H132.498H133.177V15.3658L132.498 15.4941V19.961L133.177 20.0895V20.8381H130.554V20.0895L131.233 19.961V18.2522H128.649V19.961L129.328 20.0895V20.8381H126.704V20.0895L127.378 19.961V15.4941L126.704 15.3658ZM137.758 18.1019H135.614V19.8808H137.658L137.715 19.1365H138.68V20.8381H133.668V20.0895L134.342 19.961V15.4941L133.668 15.3658V14.6128H134.342H138.671V16.3186H137.697L137.64 15.5759H135.614V17.1402H137.758V18.1019ZM145.024 14.6128V16.272H144.049L143.997 15.5759H142.83V19.961L143.509 20.0895V20.8381H140.882V20.0895L141.561 19.961V15.5759H140.399L140.347 16.272H139.376V14.6128H145.024Z" fill="#132241"/>
<path d="M98.3269 24.1747C99.0531 24.1747 99.6247 24.3585 100.043 24.7248C100.462 25.091 100.672 25.5697 100.672 26.1637C100.672 26.7591 100.462 27.2377 100.043 27.5996C99.6247 27.9615 99.0531 28.1424 98.3269 28.1424H97.2578V29.5229L97.9364 29.6514V30.4H95.3125V29.6514L95.9867 29.5229V25.056L95.3125 24.9277V24.1747H95.9867H98.3269ZM97.2578 27.1808H98.3269C98.6818 27.1808 98.9491 27.0859 99.1303 26.8962C99.3114 26.7065 99.402 26.4657 99.402 26.1724C99.402 25.8718 99.3114 25.6252 99.1303 25.4297C98.9491 25.2341 98.6818 25.1378 98.3269 25.1378H97.2578V27.1808ZM105.166 27.6638H103.022V29.4427H105.067L105.123 28.6984H106.089V30.4H101.077V29.6514L101.751 29.5229V25.056L101.077 24.9277V24.1747H101.751H106.08V25.8805H105.106L105.049 25.1378H103.022V26.7021H105.166V27.6638ZM106.824 29.6514L107.502 29.5229V25.056L106.824 24.9277V24.1747H108.773H109.448V24.9277L108.773 25.056V29.4427H110.566V25.056L109.887 24.9277V24.1747H112.505V24.9277L111.831 25.056V29.4427H113.607V25.056L112.928 24.9277V24.1747H113.607H114.872H115.551V24.9277L114.872 25.056V29.5229L115.551 29.6514V30.4H106.824V29.6514ZM120.053 27.6638H117.909V29.4427H119.953L120.01 28.6984H120.975V30.4H115.963V29.6514L116.638 29.5229V25.056L115.963 24.9277V24.1747H116.638H120.966V25.8805H119.992L119.936 25.1378H117.909V26.7021H120.053V27.6638ZM121.654 24.9277V24.1747H124.277V24.9277L123.599 25.056V26.851H126.183V25.056L125.504 24.9277V24.1747H126.183H127.448H128.126V24.9277L127.448 25.056V29.5229L128.126 29.6514V30.4H125.504V29.6514L126.183 29.5229V27.8141H123.599V29.5229L124.277 29.6514V30.4H121.654V29.6514L122.328 29.5229V25.056L121.654 24.9277ZM131.298 24.1747V24.9277L130.62 25.056V27.9367L130.645 27.9454L133.199 25.4019V25.056L132.525 24.9277V24.1747H133.199H134.473H135.149V24.9277L134.473 25.056V29.5229L135.149 29.6514V30.4H132.525V29.6514L133.199 29.5229V26.7109L133.172 26.7021L130.62 29.2501V29.5229L131.298 29.6514V30.4H128.674V29.6514L129.353 29.5229V25.056L128.674 24.9277V24.1747H129.353H130.62H131.298ZM138.28 24.1747V24.9277L137.602 25.056V27.9367L137.627 27.9454L140.181 25.4019V25.056L139.507 24.9277V24.1747H140.181H141.455H142.131V24.9277L141.455 25.056V29.5229L142.131 29.6514V30.4H139.507V29.6514L140.181 29.5229V26.7109L140.154 26.7021L137.602 29.2501V29.5229L138.28 29.6514V30.4H135.657V29.6514L136.335 29.5229V25.056L135.657 24.9277V24.1747H136.335H137.602H138.28ZM140.349 22.3447L140.358 22.371C140.371 22.7329 140.243 23.0291 139.972 23.2583C139.701 23.4873 139.336 23.6026 138.879 23.6026C138.417 23.6026 138.05 23.4873 137.777 23.2583C137.505 23.0291 137.378 22.7329 137.395 22.371L137.403 22.3447H138.266C138.266 22.511 138.315 22.6468 138.413 22.7563C138.512 22.8642 138.667 22.9182 138.879 22.9182C139.084 22.9182 139.237 22.8642 139.335 22.7577C139.434 22.6512 139.483 22.5139 139.483 22.3447H140.349Z" fill="#132241"/>
<path d="M26.4562 25.1951H21.7826L21.5009 21.8975H18.0039L16.7278 25.1951H12.2861L18.6999 9.80615H24.6826L26.4562 25.1951ZM21.5506 18.2702L21.0864 13.4557H21.02L19.0811 18.2702H21.5506ZM42.7646 9.80615L37.7596 17.0169L40.776 25.1951H35.4725L33.6162 18.6658H33.55L32.5556 25.1951H28.1141L30.4676 9.80615H34.909L33.9811 15.8519H34.0471L37.7101 9.80615H42.7646Z" fill="#132241"/>
<path d="M57.0354 9.80566L52.0303 17.0164L55.0468 25.1946H49.7433L47.8869 18.6653H47.8209L46.8265 25.1946H42.3848L44.7382 9.80566H49.1799L48.2517 15.8514H48.3178L51.9806 9.80566H57.0354Z" fill="#132241"/>
</svg>
