<svg width="7" height="7" viewBox="0 0 7 7" fill="none" xmlns="http://www.w3.org/2000/svg">
<path d="M2.39786 1.38751C2.71312 0.417247 4.08578 0.417246 4.40104 1.38751V1.38751C4.54203 1.82143 4.94638 2.11521 5.40263 2.11521V2.11521C6.42283 2.11521 6.847 3.42069 6.02165 4.02035V4.02035C5.65254 4.28852 5.49809 4.76387 5.63907 5.19779V5.19779C5.95433 6.16805 4.84382 6.97489 4.01846 6.37523V6.37523C3.64935 6.10705 3.14954 6.10705 2.78043 6.37523V6.37523C1.95507 6.97489 0.844565 6.16805 1.15982 5.19779V5.19779C1.30081 4.76387 1.14636 4.28852 0.777249 4.02035V4.02035C-0.0481068 3.42069 0.37607 2.11521 1.39627 2.11521V2.11521C1.85251 2.11521 2.25687 1.82143 2.39786 1.38751V1.38751Z" fill="#FEBE3A"/>
</svg>
