<svg width="15" height="9" viewBox="0 0 15 9" fill="none" xmlns="http://www.w3.org/2000/svg">
<path d="M12.8812 0.29089L7.29124 5.87089L1.70124 0.29089C1.51388 0.104639 1.26042 9.72748e-05 0.996239 9.72748e-05C0.732053 9.72748e-05 0.478601 0.104639 0.291239 0.29089C0.104988 0.478252 0.00044632 0.731704 0.00044632 0.99589C0.00044632 1.26008 0.104988 1.51353 0.291239 1.70089L6.65124 8.06089C6.82161 8.22944 7.05159 8.32397 7.29124 8.32397C7.53089 8.32397 7.76087 8.22944 7.93124 8.06089L14.2912 1.70089C14.4775 1.51353 14.582 1.26008 14.582 0.99589C14.582 0.731704 14.4775 0.478252 14.2912 0.29089C14.1039 0.104639 13.8504 9.72748e-05 13.5862 9.72748e-05C13.3221 9.72748e-05 13.0686 0.104639 12.8812 0.29089Z" fill="#132241"/>
</svg>
